# xmcd
#
# Track frame offsets:
#	150
#	17192
#	30794
#	44816
#	63243
#	78209
#	91776
#	104418
#	120603
#	138488
#	150380
#	163640
#	178726
#	192296
#
# Disc length: 2737 seconds
#
# Revision: 0
# Processed by: cddbd v1.5.1PL2 Copyright (c) Steve Scherf et al.
# Submitted via: EasyCDDAExtractor 8.2.1.1
#
DISCID=ab0aaf0e
DTITLE=Pedro Paulo and Fabiano - Eu Tô Afim De Alguém
DYEAR=2005
DGENRE=Country
TTITLE0=Eu Tô Afim De Alguém
TTITLE1=Fui Eu Quem Quis Assim
TTITLE2=E Agora
TTITLE3=Eu Quero É Mais
TTITLE4=Melhor Pra Mim
TTITLE5=Saudade De Nada
TTITLE6=Cheguei Galera
TTITLE7=Bom Demais
TTITLE8=Tá No Meu Olhar
TTITLE9=Talvez
TTITLE10=Homenagem À São Paulo
TTITLE11=Quero Ficar Com Você
TTITLE12=agora é pra valer
TTITLE13=O Show Vai Começar
EXTD=
EXTT0=
EXTT1=
EXTT2=
EXTT3=
EXTT4=
EXTT5=
EXTT6=
EXTT7=
EXTT8=
EXTT9=
EXTT10=
EXTT11=
EXTT12=
EXTT13=
PLAYORDER=
